<mxfile host="www.draw.io" modified="2020-01-03T09:10:43.174Z" agent="Mozilla/5.0 (Windows NT 10.0; Win64; x64) AppleWebKit/537.36 (KHTML, like Gecko) Chrome/79.0.3945.88 Safari/537.36" etag="GrJkW7nCxzJqeUH3gOij" version="12.4.8" type="github">
  <diagram name="Page-1" id="13e1069c-82ec-6db2-03f1-153e76fe0fe0">
    <mxGraphModel dx="782" dy="446" grid="1" gridSize="10" guides="1" tooltips="1" connect="1" arrows="1" fold="1" page="1" pageScale="1" pageWidth="1100" pageHeight="850" background="#ffffff" math="0" shadow="0">
      <root>
        <mxCell id="0"/>
        <mxCell id="1" parent="0"/>
        <mxCell id="7baba1c4bc27f4b0-2" value="Client 2" style="shape=umlLifeline;perimeter=lifelinePerimeter;whiteSpace=wrap;html=1;container=1;collapsible=0;recursiveResize=0;outlineConnect=0;rounded=1;shadow=0;comic=0;labelBackgroundColor=none;strokeWidth=1;fontFamily=Verdana;fontSize=12;align=center;" parent="1" vertex="1">
          <mxGeometry x="240" y="80" width="100" height="890" as="geometry"/>
        </mxCell>
        <mxCell id="7baba1c4bc27f4b0-10" value="" style="html=1;points=[];perimeter=orthogonalPerimeter;rounded=0;shadow=0;comic=0;labelBackgroundColor=none;strokeWidth=1;fontFamily=Verdana;fontSize=12;align=center;" parent="7baba1c4bc27f4b0-2" vertex="1">
          <mxGeometry x="45" y="350" width="10" height="160" as="geometry"/>
        </mxCell>
        <mxCell id="7baba1c4bc27f4b0-3" value="Lock Service" style="shape=umlLifeline;perimeter=lifelinePerimeter;whiteSpace=wrap;html=1;container=1;collapsible=0;recursiveResize=0;outlineConnect=0;rounded=1;shadow=0;comic=0;labelBackgroundColor=none;strokeWidth=1;fontFamily=Verdana;fontSize=12;align=center;fillColor=#ffffff;" parent="1" vertex="1">
          <mxGeometry x="400" y="80" width="100" height="890" as="geometry"/>
        </mxCell>
        <mxCell id="7baba1c4bc27f4b0-13" value="" style="html=1;points=[];perimeter=orthogonalPerimeter;rounded=0;shadow=0;comic=0;labelBackgroundColor=none;strokeWidth=1;fontFamily=Verdana;fontSize=12;align=center;" parent="7baba1c4bc27f4b0-3" vertex="1">
          <mxGeometry x="45" y="90" width="10" height="150" as="geometry"/>
        </mxCell>
        <mxCell id="AFSu2onyiTdUrIdWj_2S-10" value="" style="html=1;points=[];perimeter=orthogonalPerimeter;" parent="7baba1c4bc27f4b0-3" vertex="1">
          <mxGeometry x="45" y="410" width="10" height="80" as="geometry"/>
        </mxCell>
        <mxCell id="7baba1c4bc27f4b0-4" value="ETCD" style="shape=umlLifeline;perimeter=lifelinePerimeter;whiteSpace=wrap;html=1;container=1;collapsible=0;recursiveResize=0;outlineConnect=0;rounded=1;shadow=0;comic=0;labelBackgroundColor=none;strokeWidth=1;fontFamily=Verdana;fontSize=12;align=center;" parent="1" vertex="1">
          <mxGeometry x="540" y="80" width="100" height="890" as="geometry"/>
        </mxCell>
        <mxCell id="7baba1c4bc27f4b0-16" value="" style="html=1;points=[];perimeter=orthogonalPerimeter;rounded=0;shadow=0;comic=0;labelBackgroundColor=none;strokeWidth=1;fontFamily=Verdana;fontSize=12;align=center;" parent="7baba1c4bc27f4b0-4" vertex="1">
          <mxGeometry x="45" y="110" width="10" height="130" as="geometry"/>
        </mxCell>
        <mxCell id="7baba1c4bc27f4b0-5" value="Other Service" style="shape=umlLifeline;perimeter=lifelinePerimeter;whiteSpace=wrap;html=1;container=1;collapsible=0;recursiveResize=0;outlineConnect=0;rounded=1;shadow=0;comic=0;labelBackgroundColor=none;strokeWidth=1;fontFamily=Verdana;fontSize=12;align=center;" parent="1" vertex="1">
          <mxGeometry x="680" y="80" width="100" height="580" as="geometry"/>
        </mxCell>
        <mxCell id="7baba1c4bc27f4b0-19" value="" style="html=1;points=[];perimeter=orthogonalPerimeter;rounded=0;shadow=0;comic=0;labelBackgroundColor=none;strokeWidth=1;fontFamily=Verdana;fontSize=12;align=center;" parent="7baba1c4bc27f4b0-5" vertex="1">
          <mxGeometry x="45" y="260" width="10" height="20" as="geometry"/>
        </mxCell>
        <mxCell id="7baba1c4bc27f4b0-8" value="Client 1" style="shape=umlLifeline;perimeter=lifelinePerimeter;whiteSpace=wrap;html=1;container=1;collapsible=0;recursiveResize=0;outlineConnect=0;rounded=1;shadow=0;comic=0;labelBackgroundColor=none;strokeWidth=1;fontFamily=Verdana;fontSize=12;align=center;" parent="1" vertex="1">
          <mxGeometry x="100" y="80" width="100" height="900" as="geometry"/>
        </mxCell>
        <mxCell id="7baba1c4bc27f4b0-9" value="" style="html=1;points=[];perimeter=orthogonalPerimeter;rounded=0;shadow=0;comic=0;labelBackgroundColor=none;strokeWidth=1;fontFamily=Verdana;fontSize=12;align=center;" parent="7baba1c4bc27f4b0-8" vertex="1">
          <mxGeometry x="45" y="90" width="10" height="810" as="geometry"/>
        </mxCell>
        <mxCell id="7baba1c4bc27f4b0-17" value="" style="html=1;verticalAlign=bottom;endArrow=block;labelBackgroundColor=none;fontFamily=Verdana;fontSize=12;edgeStyle=elbowEdgeStyle;elbow=vertical;" parent="1" edge="1">
          <mxGeometry y="10" relative="1" as="geometry">
            <mxPoint x="455" y="200" as="sourcePoint"/>
            <Array as="points">
              <mxPoint x="530" y="200"/>
              <mxPoint x="520" y="180"/>
              <mxPoint x="460" y="200"/>
            </Array>
            <mxPoint x="585" y="200" as="targetPoint"/>
            <mxPoint as="offset"/>
          </mxGeometry>
        </mxCell>
        <mxCell id="AFSu2onyiTdUrIdWj_2S-5" value="&lt;span style=&quot;font-family: &amp;#34;verdana&amp;#34; ; background-color: rgb(248 , 249 , 250)&quot;&gt;test_and_write&lt;/span&gt;" style="text;html=1;align=center;verticalAlign=middle;resizable=0;points=[];labelBackgroundColor=#ffffff;" parent="7baba1c4bc27f4b0-17" vertex="1" connectable="0">
          <mxGeometry x="0.1538" y="33" relative="1" as="geometry">
            <mxPoint x="-10" y="23" as="offset"/>
          </mxGeometry>
        </mxCell>
        <mxCell id="7baba1c4bc27f4b0-22" value="" style="html=1;points=[];perimeter=orthogonalPerimeter;rounded=0;shadow=0;comic=0;labelBackgroundColor=none;strokeWidth=1;fontFamily=Verdana;fontSize=12;align=center;" parent="1" vertex="1">
          <mxGeometry x="585" y="440" width="10" height="140" as="geometry"/>
        </mxCell>
        <mxCell id="7baba1c4bc27f4b0-30" value="" style="html=1;verticalAlign=bottom;endArrow=open;dashed=1;endSize=8;labelBackgroundColor=none;fontFamily=Verdana;fontSize=12;edgeStyle=elbowEdgeStyle;elbow=vertical;" parent="1" edge="1">
          <mxGeometry relative="1" as="geometry">
            <mxPoint x="730" y="960" as="targetPoint"/>
            <Array as="points">
              <mxPoint x="730" y="580"/>
              <mxPoint x="570" y="600"/>
            </Array>
            <mxPoint x="730" y="600" as="sourcePoint"/>
          </mxGeometry>
        </mxCell>
        <mxCell id="7baba1c4bc27f4b0-11" value="" style="html=1;verticalAlign=bottom;endArrow=block;labelBackgroundColor=none;fontFamily=Verdana;fontSize=12;edgeStyle=elbowEdgeStyle;elbow=vertical;" parent="1" source="7baba1c4bc27f4b0-9" edge="1">
          <mxGeometry relative="1" as="geometry">
            <mxPoint x="220" y="190" as="sourcePoint"/>
            <mxPoint x="440" y="180" as="targetPoint"/>
            <mxPoint as="offset"/>
          </mxGeometry>
        </mxCell>
        <mxCell id="AFSu2onyiTdUrIdWj_2S-6" value="&lt;span style=&quot;font-family: &amp;#34;verdana&amp;#34; ; background-color: rgb(248 , 249 , 250)&quot;&gt;lock(&#39;AddNode&#39;, canLockAgain=True)&lt;/span&gt;" style="text;html=1;align=center;verticalAlign=middle;resizable=0;points=[];labelBackgroundColor=#ffffff;" parent="7baba1c4bc27f4b0-11" vertex="1" connectable="0">
          <mxGeometry x="0.4363" y="-1" relative="1" as="geometry">
            <mxPoint x="-70" y="-11" as="offset"/>
          </mxGeometry>
        </mxCell>
        <mxCell id="AFSu2onyiTdUrIdWj_2S-1" value="" style="endArrow=classic;html=1;dashed=1;" parent="1" edge="1">
          <mxGeometry width="50" height="50" relative="1" as="geometry">
            <mxPoint x="585" y="300" as="sourcePoint"/>
            <mxPoint x="460" y="300" as="targetPoint"/>
          </mxGeometry>
        </mxCell>
        <mxCell id="AFSu2onyiTdUrIdWj_2S-2" value="return(success)" style="text;html=1;align=center;verticalAlign=middle;resizable=0;points=[];labelBackgroundColor=#ffffff;" parent="AFSu2onyiTdUrIdWj_2S-1" vertex="1" connectable="0">
          <mxGeometry x="0.3493" y="-6" relative="1" as="geometry">
            <mxPoint x="19" y="2" as="offset"/>
          </mxGeometry>
        </mxCell>
        <mxCell id="AFSu2onyiTdUrIdWj_2S-3" value="" style="endArrow=classic;html=1;dashed=1;" parent="1" edge="1">
          <mxGeometry width="50" height="50" relative="1" as="geometry">
            <mxPoint x="440" y="310" as="sourcePoint"/>
            <mxPoint x="160" y="310" as="targetPoint"/>
            <Array as="points">
              <mxPoint x="430" y="310"/>
            </Array>
          </mxGeometry>
        </mxCell>
        <mxCell id="AFSu2onyiTdUrIdWj_2S-4" value="return(success)" style="text;html=1;align=center;verticalAlign=middle;resizable=0;points=[];labelBackgroundColor=#ffffff;" parent="AFSu2onyiTdUrIdWj_2S-3" vertex="1" connectable="0">
          <mxGeometry x="-0.1833" y="-4" relative="1" as="geometry">
            <mxPoint x="-31" y="-6" as="offset"/>
          </mxGeometry>
        </mxCell>
        <mxCell id="AFSu2onyiTdUrIdWj_2S-11" value="&lt;font style=&quot;font-size: 12px&quot;&gt;lock(&#39;AddDisk&#39;, &lt;br&gt;canLockAgain=True)&lt;/font&gt;" style="html=1;verticalAlign=bottom;endArrow=block;entryX=0;entryY=0;fontSize=12;" parent="1" target="AFSu2onyiTdUrIdWj_2S-10" edge="1">
          <mxGeometry relative="1" as="geometry">
            <mxPoint x="300" y="490" as="sourcePoint"/>
          </mxGeometry>
        </mxCell>
        <mxCell id="AFSu2onyiTdUrIdWj_2S-12" value="return(fail)" style="html=1;verticalAlign=bottom;endArrow=open;endSize=8;exitX=0;exitY=0.95;dashed=1;" parent="1" source="AFSu2onyiTdUrIdWj_2S-10" edge="1">
          <mxGeometry relative="1" as="geometry">
            <mxPoint x="300" y="566" as="targetPoint"/>
          </mxGeometry>
        </mxCell>
        <mxCell id="AFSu2onyiTdUrIdWj_2S-13" value="do other operations" style="endArrow=block;endFill=1;html=1;edgeStyle=orthogonalEdgeStyle;align=left;verticalAlign=top;" parent="1" edge="1">
          <mxGeometry x="-0.7143" y="20" relative="1" as="geometry">
            <mxPoint x="160" y="350" as="sourcePoint"/>
            <mxPoint x="720" y="350" as="targetPoint"/>
            <mxPoint as="offset"/>
          </mxGeometry>
        </mxCell>
        <mxCell id="AFSu2onyiTdUrIdWj_2S-21" value="" style="html=1;verticalAlign=bottom;endArrow=block;labelBackgroundColor=none;fontFamily=Verdana;fontSize=12;edgeStyle=elbowEdgeStyle;elbow=vertical;" parent="1" edge="1">
          <mxGeometry y="10" relative="1" as="geometry">
            <mxPoint x="455" y="510" as="sourcePoint"/>
            <Array as="points">
              <mxPoint x="530" y="510"/>
              <mxPoint x="520" y="490"/>
              <mxPoint x="460" y="510"/>
            </Array>
            <mxPoint x="585" y="510" as="targetPoint"/>
            <mxPoint as="offset"/>
          </mxGeometry>
        </mxCell>
        <mxCell id="AFSu2onyiTdUrIdWj_2S-22" value="&lt;span style=&quot;font-family: &amp;#34;verdana&amp;#34; ; background-color: rgb(248 , 249 , 250)&quot;&gt;test_and_write&lt;/span&gt;" style="text;html=1;align=center;verticalAlign=middle;resizable=0;points=[];labelBackgroundColor=#ffffff;" parent="AFSu2onyiTdUrIdWj_2S-21" vertex="1" connectable="0">
          <mxGeometry x="0.1538" y="33" relative="1" as="geometry">
            <mxPoint x="-10" y="23" as="offset"/>
          </mxGeometry>
        </mxCell>
        <mxCell id="AFSu2onyiTdUrIdWj_2S-23" value="" style="endArrow=classic;html=1;dashed=1;" parent="1" edge="1">
          <mxGeometry width="50" height="50" relative="1" as="geometry">
            <mxPoint x="580" y="550" as="sourcePoint"/>
            <mxPoint x="455" y="550" as="targetPoint"/>
          </mxGeometry>
        </mxCell>
        <mxCell id="AFSu2onyiTdUrIdWj_2S-24" value="fail(NodeExist and &lt;br&gt;value != &#39;AddNode&#39;)" style="text;html=1;align=center;verticalAlign=middle;resizable=0;points=[];labelBackgroundColor=#ffffff;" parent="AFSu2onyiTdUrIdWj_2S-23" vertex="1" connectable="0">
          <mxGeometry x="0.3493" y="-6" relative="1" as="geometry">
            <mxPoint x="24" y="-10" as="offset"/>
          </mxGeometry>
        </mxCell>
        <mxCell id="AFSu2onyiTdUrIdWj_2S-25" value="" style="html=1;verticalAlign=bottom;endArrow=block;labelBackgroundColor=none;fontFamily=Verdana;fontSize=12;edgeStyle=elbowEdgeStyle;elbow=vertical;" parent="1" edge="1">
          <mxGeometry relative="1" as="geometry">
            <mxPoint x="155" y="880" as="sourcePoint"/>
            <mxPoint x="440" y="880" as="targetPoint"/>
            <mxPoint as="offset"/>
          </mxGeometry>
        </mxCell>
        <mxCell id="AFSu2onyiTdUrIdWj_2S-26" value="&lt;span style=&quot;font-family: &amp;#34;verdana&amp;#34; ; background-color: rgb(248 , 249 , 250)&quot;&gt;unlock(lock_id)&lt;/span&gt;" style="text;html=1;align=center;verticalAlign=middle;resizable=0;points=[];labelBackgroundColor=#ffffff;" parent="AFSu2onyiTdUrIdWj_2S-25" vertex="1" connectable="0">
          <mxGeometry x="0.4363" y="-1" relative="1" as="geometry">
            <mxPoint x="-70" y="-11" as="offset"/>
          </mxGeometry>
        </mxCell>
        <mxCell id="AFSu2onyiTdUrIdWj_2S-27" value="" style="html=1;points=[];perimeter=orthogonalPerimeter;" parent="1" vertex="1">
          <mxGeometry x="440" y="870" width="10" height="80" as="geometry"/>
        </mxCell>
        <mxCell id="AFSu2onyiTdUrIdWj_2S-28" value="" style="html=1;verticalAlign=bottom;endArrow=block;labelBackgroundColor=none;fontFamily=Verdana;fontSize=12;edgeStyle=elbowEdgeStyle;elbow=vertical;" parent="1" edge="1">
          <mxGeometry y="10" relative="1" as="geometry">
            <mxPoint x="450" y="890" as="sourcePoint"/>
            <Array as="points">
              <mxPoint x="525" y="890"/>
              <mxPoint x="515" y="870"/>
              <mxPoint x="455" y="890"/>
            </Array>
            <mxPoint x="580" y="890" as="targetPoint"/>
            <mxPoint as="offset"/>
          </mxGeometry>
        </mxCell>
        <mxCell id="AFSu2onyiTdUrIdWj_2S-29" value="&lt;font face=&quot;verdana&quot;&gt;&lt;span style=&quot;background-color: rgb(248 , 249 , 250)&quot;&gt;delete&lt;/span&gt;&lt;/font&gt;" style="text;html=1;align=center;verticalAlign=middle;resizable=0;points=[];labelBackgroundColor=#ffffff;" parent="AFSu2onyiTdUrIdWj_2S-28" vertex="1" connectable="0">
          <mxGeometry x="0.1538" y="33" relative="1" as="geometry">
            <mxPoint x="-8" y="22" as="offset"/>
          </mxGeometry>
        </mxCell>
        <mxCell id="AFSu2onyiTdUrIdWj_2S-30" value="" style="html=1;points=[];perimeter=orthogonalPerimeter;rounded=0;shadow=0;comic=0;labelBackgroundColor=none;strokeWidth=1;fontFamily=Verdana;fontSize=12;align=center;" parent="1" vertex="1">
          <mxGeometry x="580" y="880" width="10" height="60" as="geometry"/>
        </mxCell>
        <mxCell id="AFSu2onyiTdUrIdWj_2S-31" value="" style="endArrow=classic;html=1;dashed=1;" parent="1" edge="1">
          <mxGeometry width="50" height="50" relative="1" as="geometry">
            <mxPoint x="575" y="920" as="sourcePoint"/>
            <mxPoint x="450" y="920" as="targetPoint"/>
          </mxGeometry>
        </mxCell>
        <mxCell id="AFSu2onyiTdUrIdWj_2S-32" value="return(success)" style="text;html=1;align=center;verticalAlign=middle;resizable=0;points=[];labelBackgroundColor=#ffffff;" parent="AFSu2onyiTdUrIdWj_2S-31" vertex="1" connectable="0">
          <mxGeometry x="0.3493" y="-6" relative="1" as="geometry">
            <mxPoint x="24" y="-4" as="offset"/>
          </mxGeometry>
        </mxCell>
        <mxCell id="AFSu2onyiTdUrIdWj_2S-33" value="" style="endArrow=classic;html=1;dashed=1;" parent="1" edge="1">
          <mxGeometry width="50" height="50" relative="1" as="geometry">
            <mxPoint x="440" y="930" as="sourcePoint"/>
            <mxPoint x="155" y="930" as="targetPoint"/>
          </mxGeometry>
        </mxCell>
        <mxCell id="AFSu2onyiTdUrIdWj_2S-34" value="return(success)" style="text;html=1;align=center;verticalAlign=middle;resizable=0;points=[];labelBackgroundColor=#ffffff;" parent="AFSu2onyiTdUrIdWj_2S-33" vertex="1" connectable="0">
          <mxGeometry x="0.3493" y="-6" relative="1" as="geometry">
            <mxPoint x="42" y="-4" as="offset"/>
          </mxGeometry>
        </mxCell>
      </root>
    </mxGraphModel>
  </diagram>
</mxfile>
